<?xml version="1.0" encoding="utf-8"?>
<!-- Generator: Adobe Illustrator 25.0.1, SVG Export Plug-In . SVG Version: 6.00 Build 0)  -->
<svg version="1.1" id="Layer_1" xmlns="http://www.w3.org/2000/svg" xmlns:xlink="http://www.w3.org/1999/xlink" x="0px" y="0px"
	 viewBox="0 0 2700 1800" style="enable-background:new 0 0 2700 1800;" xml:space="preserve">
<style type="text/css">
	.st0{fill-rule:evenodd;clip-rule:evenodd;fill:url(#SVGID_1_);}
	.st1{fill:#E5E5E5;}
	.st2{fill-rule:evenodd;clip-rule:evenodd;fill:#E5E5E5;}
	.st3{fill-rule:evenodd;clip-rule:evenodd;fill:url(#SVGID_2_);}
	.st4{fill:#CCC8C9;}
	.st5{font-family:'MyriadPro-Regular';}
	.st6{font-size:293.587px;}
</style>
<linearGradient id="SVGID_1_" gradientUnits="userSpaceOnUse" x1="1459.1461" y1="223.6152" x2="1459.1981" y2="596.039">
	<stop  offset="0" style="stop-color:#26C4F4"/>
	<stop  offset="1" style="stop-color:#386CB5"/>
</linearGradient>
<path class="st0" d="M1831.28,156.97l-372.14,644.55l-100.52-174.1l234.83-406.74C1641.32,137.76,1748.35,109.08,1831.28,156.97
	L1831.28,156.97L1831.28,156.97z M1087,156.97l234.2,405.63l100.52-174.09l-96.89-167.82C1276.95,137.76,1169.92,109.08,1087,156.97
	L1087,156.97z"/>
<path class="st1" d="M1447.03,887.75l-372.78-670.19c-47.86-86.06-154.9-115.82-237.82-66.12l510.09,917L1447.03,887.75z"/>
<path class="st2" d="M836.42,151.43L836.42,151.43L836.42,151.43z"/>
<linearGradient id="SVGID_2_" gradientUnits="userSpaceOnUse" x1="1408.8197" y1="1141.2365" x2="1408.655" y2="1393.6184">
	<stop  offset="0" style="stop-color:#26C4F4"/>
	<stop  offset="1" style="stop-color:#386CB5"/>
</linearGradient>
<path class="st3" d="M642.97,1296.66h132.31v47.73h-96.75c-43.97,0-75.33-31.49-75.33-78.73c0-46.74,32.5-80.2,75.33-80.2h131.93
	l51.24-85.62H678.53c-88.71,0-154.1,64.95-154.1,161.39c0,95.95,65.39,167.79,154.1,167.79h175.52v-205.67H690.39L642.97,1296.66
	L642.97,1296.66z M2075.42,1344.39v-44.78h157.16l45.5-74.79h-202.67v-39.36h165.57l51.24-85.62h-296.36v329.17h246.26l50.86-84.63
	H2075.42L2075.42,1344.39z M1541.98,1099.84l160.22,297.68c11.09,21.16,26.39,36.9,50.47,36.9c24.47,0,40.15-17.71,51.24-36.9
	l163.66-297.68h-93.3l-120.07,218.47l-115.1-218.47H1541.98L1541.98,1099.84z M1372.2,1094.43c124.28,0,186.99,52.16,186.99,169.75
	c0,118.09-61.95,170.25-186.99,170.25c-125.43,0-186.99-52.16-186.99-170.25C1185.2,1146.58,1247.15,1094.43,1372.2,1094.43
	L1372.2,1094.43z M1372.2,1348.81c79.54,0,108.22-13.78,108.22-84.63c0-70.85-28.68-84.14-108.22-84.14s-108.22,13.29-108.22,84.14
	C1263.98,1335.04,1292.66,1348.81,1372.2,1348.81L1372.2,1348.81z M978.71,1344.39v-244.54h-79.15v329.17h225.99l51.24-84.63H978.71
	z"/>
<text transform="matrix(1.2392 0 0 1 899.5586 1689.6077)" class="st4 st5 st6">TRADING</text>
</svg>
